<svg xmlns="http://www.w3.org/2000/svg" version="1.1" xmlns:xlink="http://www.w3.org/1999/xlink" xmlns:svgjs="http://svgjs.dev/svgjs" width="1440" height="560" preserveAspectRatio="none" viewBox="0 0 1440 560"><g mask="url(&quot;#SvgjsMask1025&quot;)" fill="none"><rect width="1440" height="560" x="0" y="0" fill="#1e3266"></rect><path d="M1512 560L0 560 L0 262.43Q77.09 267.52, 72 344.62Q113.56 266.19, 192 307.75Q246.12 241.87, 312 295.98Q341.91 253.89, 384 283.81Q406.31 234.13, 456 256.44Q499.36 227.8, 528 271.16Q584.8 255.96, 600 312.76Q653.57 246.33, 720 299.9Q767.46 275.36, 792 322.82Q833.9 292.72, 864 334.62Q884.93 283.55, 936 304.48Q1003.64 252.13, 1056 319.77Q1122.39 266.16, 1176 332.56Q1199.6 236.15, 1296 259.75Q1320.58 212.33, 1368 236.91Q1421.68 218.59, 1440 272.28Q1481.31 241.58, 1512 282.89z" fill="#182f5d"></path><path d="M1464 560L0 560 L0 367.1Q90.18 337.28, 120 427.46Q135.12 370.57, 192 385.69Q238.31 312, 312 358.3Q402.41 328.71, 432 419.11Q456.93 372.04, 504 396.97Q569.8 342.77, 624 408.58Q646.45 311.03, 744 333.49Q821.11 290.6, 864 367.71Q923.75 355.45, 936 415.2Q981.92 341.12, 1056 387.04Q1070.3 329.34, 1128 343.63Q1156.92 300.56, 1200 329.48Q1253.65 311.13, 1272 364.78Q1344.25 317.03, 1392 389.28Q1408.05 333.32, 1464 349.37z" fill="#25467d"></path><path d="M1512 560L0 560 L0 445.26Q32.52 405.78, 72 438.3Q158.85 405.15, 192 492Q220.43 448.43, 264 476.85Q259 399.86, 336 394.86Q411.25 398.11, 408 473.35Q451.19 444.54, 480 487.73Q521.28 457.01, 552 498.3Q595.22 421.52, 672 464.75Q724.62 397.37, 792 449.98Q844.6 430.58, 864 483.17Q894.95 394.12, 984 425.06Q1055.79 376.85, 1104 448.63Q1156.06 428.69, 1176 480.74Q1222.65 455.39, 1248 502.04Q1262.09 396.13, 1368 410.22Q1410.47 380.7, 1440 423.17Q1490.79 401.96, 1512 452.74z" fill="#356cb1"></path><path d="M1560 560L0 560 L0 521.15Q49.56 498.71, 72 548.28Q111.75 468.03, 192 507.79Q280.07 475.86, 312 563.93Q328.43 508.36, 384 524.78Q413.14 481.92, 456 511.07Q533.67 468.74, 576 546.41Q620.33 518.74, 648 563.07Q719.1 514.17, 768 585.27Q776.56 521.83, 840 530.38Q856.75 475.13, 912 491.88Q953.65 461.53, 984 503.18Q1039.17 486.36, 1056 541.53Q1105.31 470.84, 1176 520.15Q1262.26 486.4, 1296 572.66Q1314.83 519.49, 1368 538.32Q1383.78 482.11, 1440 497.89Q1505.86 443.75, 1560 509.6z" fill="white"></path></g><defs><mask id="SvgjsMask1025"><rect width="1440" height="560" fill="#ffffff"></rect></mask></defs></svg>